<mxfile host="app.diagrams.net" modified="2023-11-15T12:13:06.362Z" agent="Mozilla/5.0 (Windows NT 10.0; Win64; x64) AppleWebKit/537.36 (KHTML, like Gecko) Chrome/119.0.0.0 Safari/537.36" etag="Hmmgc2j_B19GCkMvxzrr" version="22.1.1" type="google">
  <diagram name="Prima Iterazione" id="0pPkHctfTOwJFwFsuPPr">
    <mxGraphModel dx="1247" dy="652" grid="1" gridSize="10" guides="1" tooltips="1" connect="1" arrows="1" fold="1" page="1" pageScale="1" pageWidth="827" pageHeight="1169" math="0" shadow="0">
      <root>
        <mxCell id="0" />
        <mxCell id="1" parent="0" />
        <mxCell id="YR3IGx6ncRQYAdFYOEWZ-1" value="HOSTESS" style="whiteSpace=wrap;html=1;align=center;" vertex="1" parent="1">
          <mxGeometry x="230" y="175" width="100" height="40" as="geometry" />
        </mxCell>
        <mxCell id="YR3IGx6ncRQYAdFYOEWZ-2" value="STEWARD" style="whiteSpace=wrap;html=1;align=center;" vertex="1" parent="1">
          <mxGeometry x="350" y="175" width="100" height="40" as="geometry" />
        </mxCell>
        <mxCell id="YR3IGx6ncRQYAdFYOEWZ-34" style="edgeStyle=orthogonalEdgeStyle;rounded=0;orthogonalLoop=1;jettySize=auto;html=1;exitX=1;exitY=0.5;exitDx=0;exitDy=0;entryX=0;entryY=0.5;entryDx=0;entryDy=0;endArrow=none;endFill=0;" edge="1" parent="1" source="YR3IGx6ncRQYAdFYOEWZ-3" target="YR3IGx6ncRQYAdFYOEWZ-33">
          <mxGeometry relative="1" as="geometry" />
        </mxCell>
        <mxCell id="YR3IGx6ncRQYAdFYOEWZ-3" value="ASSISTENTE" style="whiteSpace=wrap;html=1;align=center;" vertex="1" parent="1">
          <mxGeometry x="290" y="255" width="100" height="40" as="geometry" />
        </mxCell>
        <mxCell id="YR3IGx6ncRQYAdFYOEWZ-40" style="edgeStyle=orthogonalEdgeStyle;rounded=0;orthogonalLoop=1;jettySize=auto;html=1;entryX=1;entryY=0.5;entryDx=0;entryDy=0;endArrow=none;endFill=0;" edge="1" parent="1" source="YR3IGx6ncRQYAdFYOEWZ-4" target="YR3IGx6ncRQYAdFYOEWZ-35">
          <mxGeometry relative="1" as="geometry" />
        </mxCell>
        <mxCell id="YR3IGx6ncRQYAdFYOEWZ-4" value="EQUIPAGGIO" style="whiteSpace=wrap;html=1;align=center;" vertex="1" parent="1">
          <mxGeometry x="290" y="410" width="100" height="40" as="geometry" />
        </mxCell>
        <mxCell id="YR3IGx6ncRQYAdFYOEWZ-5" value="PILOTA" style="whiteSpace=wrap;html=1;align=center;" vertex="1" parent="1">
          <mxGeometry x="570" y="410" width="100" height="40" as="geometry" />
        </mxCell>
        <mxCell id="YR3IGx6ncRQYAdFYOEWZ-6" value="MODELLO" style="whiteSpace=wrap;html=1;align=center;" vertex="1" parent="1">
          <mxGeometry x="290" y="855" width="100" height="40" as="geometry" />
        </mxCell>
        <mxCell id="YR3IGx6ncRQYAdFYOEWZ-7" value="AEROMOBILE" style="whiteSpace=wrap;html=1;align=center;" vertex="1" parent="1">
          <mxGeometry x="290" y="705" width="100" height="40" as="geometry" />
        </mxCell>
        <mxCell id="YR3IGx6ncRQYAdFYOEWZ-8" value="VOLO" style="whiteSpace=wrap;html=1;align=center;" vertex="1" parent="1">
          <mxGeometry x="290" y="555" width="100" height="40" as="geometry" />
        </mxCell>
        <mxCell id="YR3IGx6ncRQYAdFYOEWZ-9" value="Compone" style="shape=rhombus;perimeter=rhombusPerimeter;whiteSpace=wrap;html=1;align=center;" vertex="1" parent="1">
          <mxGeometry x="290" y="325" width="100" height="50" as="geometry" />
        </mxCell>
        <mxCell id="YR3IGx6ncRQYAdFYOEWZ-11" value="Comanda" style="shape=rhombus;perimeter=rhombusPerimeter;whiteSpace=wrap;html=1;align=center;" vertex="1" parent="1">
          <mxGeometry x="430" y="405" width="100" height="50" as="geometry" />
        </mxCell>
        <mxCell id="YR3IGx6ncRQYAdFYOEWZ-12" value="Imbarca" style="shape=rhombus;perimeter=rhombusPerimeter;whiteSpace=wrap;html=1;align=center;" vertex="1" parent="1">
          <mxGeometry x="290" y="475" width="100" height="50" as="geometry" />
        </mxCell>
        <mxCell id="YR3IGx6ncRQYAdFYOEWZ-13" value="Tratta" style="shape=rhombus;perimeter=rhombusPerimeter;whiteSpace=wrap;html=1;align=center;" vertex="1" parent="1">
          <mxGeometry x="290" y="625" width="100" height="50" as="geometry" />
        </mxCell>
        <mxCell id="YR3IGx6ncRQYAdFYOEWZ-14" value="DI" style="shape=rhombus;perimeter=rhombusPerimeter;whiteSpace=wrap;html=1;align=center;" vertex="1" parent="1">
          <mxGeometry x="290" y="775" width="100" height="50" as="geometry" />
        </mxCell>
        <mxCell id="YR3IGx6ncRQYAdFYOEWZ-18" value="(1,1)" style="endArrow=none;html=1;rounded=0;exitX=0.5;exitY=1;exitDx=0;exitDy=0;entryX=0.5;entryY=0;entryDx=0;entryDy=0;" edge="1" parent="1" source="YR3IGx6ncRQYAdFYOEWZ-8" target="YR3IGx6ncRQYAdFYOEWZ-13">
          <mxGeometry relative="1" as="geometry">
            <mxPoint x="250" y="625" as="sourcePoint" />
            <mxPoint x="410" y="625" as="targetPoint" />
          </mxGeometry>
        </mxCell>
        <mxCell id="YR3IGx6ncRQYAdFYOEWZ-20" value="(1,1)" style="endArrow=none;html=1;rounded=0;exitX=0.5;exitY=1;exitDx=0;exitDy=0;entryX=0.5;entryY=0;entryDx=0;entryDy=0;" edge="1" parent="1" source="YR3IGx6ncRQYAdFYOEWZ-13" target="YR3IGx6ncRQYAdFYOEWZ-7">
          <mxGeometry relative="1" as="geometry">
            <mxPoint x="250" y="645" as="sourcePoint" />
            <mxPoint x="410" y="645" as="targetPoint" />
          </mxGeometry>
        </mxCell>
        <mxCell id="YR3IGx6ncRQYAdFYOEWZ-21" value="(1,1)" style="endArrow=none;html=1;rounded=0;exitX=0.5;exitY=1;exitDx=0;exitDy=0;entryX=0.5;entryY=0;entryDx=0;entryDy=0;" edge="1" parent="1" source="YR3IGx6ncRQYAdFYOEWZ-7" target="YR3IGx6ncRQYAdFYOEWZ-14">
          <mxGeometry relative="1" as="geometry">
            <mxPoint x="210" y="725" as="sourcePoint" />
            <mxPoint x="370" y="725" as="targetPoint" />
          </mxGeometry>
        </mxCell>
        <mxCell id="YR3IGx6ncRQYAdFYOEWZ-22" value="(1,N)" style="endArrow=none;html=1;rounded=0;entryX=0.5;entryY=1;entryDx=0;entryDy=0;exitX=0.5;exitY=0;exitDx=0;exitDy=0;" edge="1" parent="1" source="YR3IGx6ncRQYAdFYOEWZ-6" target="YR3IGx6ncRQYAdFYOEWZ-14">
          <mxGeometry relative="1" as="geometry">
            <mxPoint x="220" y="735" as="sourcePoint" />
            <mxPoint x="380" y="735" as="targetPoint" />
          </mxGeometry>
        </mxCell>
        <mxCell id="YR3IGx6ncRQYAdFYOEWZ-23" value="(1,1)" style="endArrow=none;html=1;rounded=0;entryX=0.5;entryY=0;entryDx=0;entryDy=0;exitX=0.5;exitY=1;exitDx=0;exitDy=0;" edge="1" parent="1" source="YR3IGx6ncRQYAdFYOEWZ-12" target="YR3IGx6ncRQYAdFYOEWZ-8">
          <mxGeometry relative="1" as="geometry">
            <mxPoint x="340" y="525" as="sourcePoint" />
            <mxPoint x="500" y="525" as="targetPoint" />
          </mxGeometry>
        </mxCell>
        <mxCell id="YR3IGx6ncRQYAdFYOEWZ-24" value="(1,1)" style="endArrow=none;html=1;rounded=0;entryX=0.5;entryY=0;entryDx=0;entryDy=0;exitX=0.5;exitY=1;exitDx=0;exitDy=0;" edge="1" parent="1" source="YR3IGx6ncRQYAdFYOEWZ-4" target="YR3IGx6ncRQYAdFYOEWZ-12">
          <mxGeometry relative="1" as="geometry">
            <mxPoint x="350" y="535" as="sourcePoint" />
            <mxPoint x="350" y="565" as="targetPoint" />
          </mxGeometry>
        </mxCell>
        <mxCell id="YR3IGx6ncRQYAdFYOEWZ-25" value="&lt;span style=&quot;color: rgb(0, 0, 0); font-family: Helvetica; font-size: 11px; font-style: normal; font-variant-ligatures: normal; font-variant-caps: normal; font-weight: 400; letter-spacing: normal; orphans: 2; text-align: center; text-indent: 0px; text-transform: none; widows: 2; word-spacing: 0px; -webkit-text-stroke-width: 0px; background-color: rgb(255, 255, 255); text-decoration-thickness: initial; text-decoration-style: initial; text-decoration-color: initial; float: none; display: inline !important;&quot;&gt;(2,2)&lt;/span&gt;" style="endArrow=none;html=1;rounded=0;entryX=0;entryY=0.5;entryDx=0;entryDy=0;exitX=1;exitY=0.5;exitDx=0;exitDy=0;" edge="1" parent="1" source="YR3IGx6ncRQYAdFYOEWZ-4" target="YR3IGx6ncRQYAdFYOEWZ-11">
          <mxGeometry relative="1" as="geometry">
            <mxPoint x="350" y="460" as="sourcePoint" />
            <mxPoint x="350" y="480" as="targetPoint" />
          </mxGeometry>
        </mxCell>
        <mxCell id="YR3IGx6ncRQYAdFYOEWZ-26" value="&lt;span style=&quot;color: rgb(0, 0, 0); font-family: Helvetica; font-size: 11px; font-style: normal; font-variant-ligatures: normal; font-variant-caps: normal; font-weight: 400; letter-spacing: normal; orphans: 2; text-align: center; text-indent: 0px; text-transform: none; widows: 2; word-spacing: 0px; -webkit-text-stroke-width: 0px; background-color: rgb(255, 255, 255); text-decoration-thickness: initial; text-decoration-style: initial; text-decoration-color: initial; float: none; display: inline !important;&quot;&gt;(1,1)&lt;/span&gt;" style="endArrow=none;html=1;rounded=0;entryX=1;entryY=0.5;entryDx=0;entryDy=0;exitX=0;exitY=0.5;exitDx=0;exitDy=0;" edge="1" parent="1" source="YR3IGx6ncRQYAdFYOEWZ-5" target="YR3IGx6ncRQYAdFYOEWZ-11">
          <mxGeometry relative="1" as="geometry">
            <mxPoint x="400" y="440" as="sourcePoint" />
            <mxPoint x="450" y="435" as="targetPoint" />
          </mxGeometry>
        </mxCell>
        <mxCell id="YR3IGx6ncRQYAdFYOEWZ-27" value="&lt;span style=&quot;color: rgb(0, 0, 0); font-family: Helvetica; font-size: 11px; font-style: normal; font-variant-ligatures: normal; font-variant-caps: normal; font-weight: 400; letter-spacing: normal; orphans: 2; text-align: center; text-indent: 0px; text-transform: none; widows: 2; word-spacing: 0px; -webkit-text-stroke-width: 0px; background-color: rgb(255, 255, 255); text-decoration-thickness: initial; text-decoration-style: initial; text-decoration-color: initial; float: none; display: inline !important;&quot;&gt;(1,N)&lt;/span&gt;" style="endArrow=none;html=1;rounded=0;entryX=0.5;entryY=0;entryDx=0;entryDy=0;exitX=0.5;exitY=1;exitDx=0;exitDy=0;" edge="1" parent="1" source="YR3IGx6ncRQYAdFYOEWZ-9" target="YR3IGx6ncRQYAdFYOEWZ-4">
          <mxGeometry relative="1" as="geometry">
            <mxPoint x="350" y="465" as="sourcePoint" />
            <mxPoint x="350" y="485" as="targetPoint" />
          </mxGeometry>
        </mxCell>
        <mxCell id="YR3IGx6ncRQYAdFYOEWZ-28" value="(1,1)" style="endArrow=none;html=1;rounded=0;entryX=0.5;entryY=0;entryDx=0;entryDy=0;exitX=0.5;exitY=1;exitDx=0;exitDy=0;" edge="1" parent="1" source="YR3IGx6ncRQYAdFYOEWZ-3" target="YR3IGx6ncRQYAdFYOEWZ-9">
          <mxGeometry relative="1" as="geometry">
            <mxPoint x="339.8" y="285" as="sourcePoint" />
            <mxPoint x="339.8" y="305" as="targetPoint" />
          </mxGeometry>
        </mxCell>
        <mxCell id="YR3IGx6ncRQYAdFYOEWZ-30" value="" style="endArrow=block;html=1;endFill=1;edgeStyle=elbowEdgeStyle;elbow=vertical;rounded=0;entryX=0.5;entryY=0;entryDx=0;entryDy=0;exitX=0.5;exitY=1;exitDx=0;exitDy=0;" edge="1" parent="1" source="YR3IGx6ncRQYAdFYOEWZ-1" target="YR3IGx6ncRQYAdFYOEWZ-3">
          <mxGeometry width="100" height="75" relative="1" as="geometry">
            <mxPoint x="170" y="300" as="sourcePoint" />
            <mxPoint x="270" y="225" as="targetPoint" />
          </mxGeometry>
        </mxCell>
        <mxCell id="YR3IGx6ncRQYAdFYOEWZ-31" value="" style="endArrow=block;html=1;endFill=1;edgeStyle=elbowEdgeStyle;elbow=vertical;rounded=0;exitX=0.5;exitY=1;exitDx=0;exitDy=0;fillColor=#000000;verticalAlign=middle;align=center;" edge="1" parent="1" source="YR3IGx6ncRQYAdFYOEWZ-2">
          <mxGeometry width="100" height="75" relative="1" as="geometry">
            <mxPoint x="285" y="225" as="sourcePoint" />
            <mxPoint x="340" y="255" as="targetPoint" />
          </mxGeometry>
        </mxCell>
        <mxCell id="YR3IGx6ncRQYAdFYOEWZ-32" value="Disgiunto" style="edgeLabel;html=1;align=center;verticalAlign=middle;resizable=0;points=[];labelPosition=center;verticalLabelPosition=middle;" vertex="1" connectable="0" parent="YR3IGx6ncRQYAdFYOEWZ-31">
          <mxGeometry x="-0.0783" relative="1" as="geometry">
            <mxPoint x="-1" as="offset" />
          </mxGeometry>
        </mxCell>
        <mxCell id="YR3IGx6ncRQYAdFYOEWZ-33" value="id_assistente" style="ellipse;whiteSpace=wrap;html=1;align=left;fontStyle=0;verticalAlign=middle;horizontal=1;labelPosition=right;verticalLabelPosition=middle;labelBackgroundColor=none;fillStyle=auto;fillColor=#050505;" vertex="1" parent="1">
          <mxGeometry x="410" y="270" width="10" height="10" as="geometry" />
        </mxCell>
        <mxCell id="YR3IGx6ncRQYAdFYOEWZ-35" value="id_equipaggio" style="ellipse;whiteSpace=wrap;html=1;align=right;fontStyle=0;verticalAlign=middle;horizontal=1;labelPosition=left;verticalLabelPosition=middle;labelBackgroundColor=none;fillStyle=auto;fillColor=#050505;" vertex="1" parent="1">
          <mxGeometry x="260" y="425" width="10" height="10" as="geometry" />
        </mxCell>
        <mxCell id="YR3IGx6ncRQYAdFYOEWZ-36" value="id_pilota" style="ellipse;whiteSpace=wrap;html=1;align=left;fontStyle=0;verticalAlign=middle;horizontal=1;labelPosition=right;verticalLabelPosition=middle;labelBackgroundColor=none;fillStyle=auto;fillColor=#050505;" vertex="1" parent="1">
          <mxGeometry x="690" y="425" width="10" height="10" as="geometry" />
        </mxCell>
        <mxCell id="YR3IGx6ncRQYAdFYOEWZ-37" value="id_aereo" style="ellipse;whiteSpace=wrap;html=1;align=left;fontStyle=0;verticalAlign=middle;horizontal=1;labelPosition=right;verticalLabelPosition=middle;labelBackgroundColor=none;fillStyle=auto;fillColor=#050505;" vertex="1" parent="1">
          <mxGeometry x="410" y="720" width="10" height="10" as="geometry" />
        </mxCell>
        <mxCell id="YR3IGx6ncRQYAdFYOEWZ-38" style="edgeStyle=orthogonalEdgeStyle;rounded=0;orthogonalLoop=1;jettySize=auto;html=1;entryX=0;entryY=0.5;entryDx=0;entryDy=0;endArrow=none;endFill=0;" edge="1" parent="1" source="YR3IGx6ncRQYAdFYOEWZ-7" target="YR3IGx6ncRQYAdFYOEWZ-37">
          <mxGeometry relative="1" as="geometry" />
        </mxCell>
        <mxCell id="YR3IGx6ncRQYAdFYOEWZ-41" style="edgeStyle=orthogonalEdgeStyle;shape=connector;rounded=0;orthogonalLoop=1;jettySize=auto;html=1;entryX=0;entryY=0.5;entryDx=0;entryDy=0;labelBackgroundColor=default;strokeColor=default;align=center;verticalAlign=middle;fontFamily=Helvetica;fontSize=11;fontColor=default;endArrow=none;endFill=0;" edge="1" parent="1" source="YR3IGx6ncRQYAdFYOEWZ-5" target="YR3IGx6ncRQYAdFYOEWZ-36">
          <mxGeometry relative="1" as="geometry">
            <Array as="points">
              <mxPoint x="650" y="430" />
              <mxPoint x="650" y="430" />
            </Array>
          </mxGeometry>
        </mxCell>
        <mxCell id="YR3IGx6ncRQYAdFYOEWZ-61" style="edgeStyle=orthogonalEdgeStyle;shape=connector;rounded=0;orthogonalLoop=1;jettySize=auto;html=1;entryX=0;entryY=0.25;entryDx=0;entryDy=0;labelBackgroundColor=default;strokeColor=default;align=center;verticalAlign=middle;fontFamily=Helvetica;fontSize=11;fontColor=default;endArrow=none;endFill=0;" edge="1" parent="1" source="YR3IGx6ncRQYAdFYOEWZ-43" target="YR3IGx6ncRQYAdFYOEWZ-8">
          <mxGeometry relative="1" as="geometry" />
        </mxCell>
        <mxCell id="YR3IGx6ncRQYAdFYOEWZ-43" value="destinazione" style="ellipse;whiteSpace=wrap;html=1;align=right;fontFamily=Helvetica;fontSize=11;fontColor=default;labelPosition=left;verticalLabelPosition=middle;verticalAlign=middle;" vertex="1" parent="1">
          <mxGeometry x="260" y="560" width="10" height="10" as="geometry" />
        </mxCell>
        <mxCell id="YR3IGx6ncRQYAdFYOEWZ-58" style="edgeStyle=orthogonalEdgeStyle;shape=connector;rounded=0;orthogonalLoop=1;jettySize=auto;html=1;entryX=1;entryY=0.25;entryDx=0;entryDy=0;labelBackgroundColor=default;strokeColor=default;align=center;verticalAlign=middle;fontFamily=Helvetica;fontSize=11;fontColor=default;endArrow=none;endFill=0;" edge="1" parent="1" source="YR3IGx6ncRQYAdFYOEWZ-47" target="YR3IGx6ncRQYAdFYOEWZ-8">
          <mxGeometry relative="1" as="geometry" />
        </mxCell>
        <mxCell id="YR3IGx6ncRQYAdFYOEWZ-47" value="gate" style="ellipse;whiteSpace=wrap;html=1;align=left;fontFamily=Helvetica;fontSize=11;fontColor=default;labelPosition=right;verticalLabelPosition=middle;verticalAlign=middle;" vertex="1" parent="1">
          <mxGeometry x="420" y="560" width="10" height="10" as="geometry" />
        </mxCell>
        <mxCell id="YR3IGx6ncRQYAdFYOEWZ-57" style="edgeStyle=orthogonalEdgeStyle;shape=connector;rounded=0;orthogonalLoop=1;jettySize=auto;html=1;entryX=1;entryY=0.75;entryDx=0;entryDy=0;labelBackgroundColor=default;strokeColor=default;align=center;verticalAlign=middle;fontFamily=Helvetica;fontSize=11;fontColor=default;endArrow=none;endFill=0;" edge="1" parent="1" source="YR3IGx6ncRQYAdFYOEWZ-49" target="YR3IGx6ncRQYAdFYOEWZ-8">
          <mxGeometry relative="1" as="geometry">
            <Array as="points">
              <mxPoint x="410" y="585" />
              <mxPoint x="410" y="585" />
            </Array>
          </mxGeometry>
        </mxCell>
        <mxCell id="YR3IGx6ncRQYAdFYOEWZ-49" value="ora" style="ellipse;whiteSpace=wrap;html=1;align=left;fontFamily=Helvetica;fontSize=11;fontColor=default;labelPosition=right;verticalLabelPosition=middle;verticalAlign=middle;" vertex="1" parent="1">
          <mxGeometry x="420" y="580" width="10" height="10" as="geometry" />
        </mxCell>
        <mxCell id="YR3IGx6ncRQYAdFYOEWZ-63" style="edgeStyle=orthogonalEdgeStyle;shape=connector;rounded=0;orthogonalLoop=1;jettySize=auto;html=1;entryX=0;entryY=0.75;entryDx=0;entryDy=0;labelBackgroundColor=default;strokeColor=default;align=center;verticalAlign=middle;fontFamily=Helvetica;fontSize=11;fontColor=default;endArrow=none;endFill=0;" edge="1" parent="1" source="YR3IGx6ncRQYAdFYOEWZ-62" target="YR3IGx6ncRQYAdFYOEWZ-8">
          <mxGeometry relative="1" as="geometry" />
        </mxCell>
        <mxCell id="YR3IGx6ncRQYAdFYOEWZ-62" value="capacità_passeggeri" style="ellipse;whiteSpace=wrap;html=1;align=right;dashed=1;fontFamily=Helvetica;fontSize=11;fontColor=default;labelPosition=left;verticalLabelPosition=middle;verticalAlign=middle;" vertex="1" parent="1">
          <mxGeometry x="260" y="580" width="10" height="10" as="geometry" />
        </mxCell>
        <mxCell id="YR3IGx6ncRQYAdFYOEWZ-75" style="edgeStyle=orthogonalEdgeStyle;shape=connector;rounded=0;orthogonalLoop=1;jettySize=auto;html=1;entryX=1;entryY=0.25;entryDx=0;entryDy=0;labelBackgroundColor=default;strokeColor=default;align=center;verticalAlign=middle;fontFamily=Helvetica;fontSize=11;fontColor=default;endArrow=none;endFill=0;" edge="1" parent="1" source="YR3IGx6ncRQYAdFYOEWZ-64" target="YR3IGx6ncRQYAdFYOEWZ-6">
          <mxGeometry relative="1" as="geometry" />
        </mxCell>
        <mxCell id="YR3IGx6ncRQYAdFYOEWZ-64" value="carico_max" style="ellipse;whiteSpace=wrap;html=1;align=left;fontFamily=Helvetica;fontSize=11;fontColor=default;labelPosition=right;verticalLabelPosition=middle;verticalAlign=middle;" vertex="1" parent="1">
          <mxGeometry x="410" y="860" width="10" height="10" as="geometry" />
        </mxCell>
        <mxCell id="YR3IGx6ncRQYAdFYOEWZ-76" style="edgeStyle=orthogonalEdgeStyle;shape=connector;rounded=0;orthogonalLoop=1;jettySize=auto;html=1;entryX=1;entryY=0.75;entryDx=0;entryDy=0;labelBackgroundColor=default;strokeColor=default;align=center;verticalAlign=middle;fontFamily=Helvetica;fontSize=11;fontColor=default;endArrow=none;endFill=0;" edge="1" parent="1" source="YR3IGx6ncRQYAdFYOEWZ-65" target="YR3IGx6ncRQYAdFYOEWZ-6">
          <mxGeometry relative="1" as="geometry" />
        </mxCell>
        <mxCell id="YR3IGx6ncRQYAdFYOEWZ-65" value="persone_max" style="ellipse;whiteSpace=wrap;html=1;align=left;fontFamily=Helvetica;fontSize=11;fontColor=default;labelPosition=right;verticalLabelPosition=middle;verticalAlign=middle;" vertex="1" parent="1">
          <mxGeometry x="410" y="880" width="10" height="10" as="geometry" />
        </mxCell>
        <mxCell id="YR3IGx6ncRQYAdFYOEWZ-73" style="edgeStyle=orthogonalEdgeStyle;shape=connector;rounded=0;orthogonalLoop=1;jettySize=auto;html=1;entryX=0;entryY=0.25;entryDx=0;entryDy=0;labelBackgroundColor=default;strokeColor=default;align=center;verticalAlign=middle;fontFamily=Helvetica;fontSize=11;fontColor=default;endArrow=none;endFill=0;" edge="1" parent="1" source="YR3IGx6ncRQYAdFYOEWZ-66" target="YR3IGx6ncRQYAdFYOEWZ-6">
          <mxGeometry relative="1" as="geometry" />
        </mxCell>
        <mxCell id="YR3IGx6ncRQYAdFYOEWZ-66" value="nome_modello" style="ellipse;whiteSpace=wrap;html=1;align=right;fontFamily=Helvetica;fontSize=11;fontColor=default;labelPosition=left;verticalLabelPosition=middle;verticalAlign=middle;" vertex="1" parent="1">
          <mxGeometry x="254.75" y="860" width="10" height="10" as="geometry" />
        </mxCell>
        <mxCell id="YR3IGx6ncRQYAdFYOEWZ-74" style="edgeStyle=orthogonalEdgeStyle;shape=connector;rounded=0;orthogonalLoop=1;jettySize=auto;html=1;entryX=0;entryY=0.75;entryDx=0;entryDy=0;labelBackgroundColor=default;strokeColor=default;align=center;verticalAlign=middle;fontFamily=Helvetica;fontSize=11;fontColor=default;endArrow=none;endFill=0;" edge="1" parent="1" source="YR3IGx6ncRQYAdFYOEWZ-67" target="YR3IGx6ncRQYAdFYOEWZ-6">
          <mxGeometry relative="1" as="geometry" />
        </mxCell>
        <mxCell id="YR3IGx6ncRQYAdFYOEWZ-67" value="azienda_costruttrice" style="ellipse;whiteSpace=wrap;html=1;align=right;fontFamily=Helvetica;fontSize=11;fontColor=default;labelPosition=left;verticalLabelPosition=middle;verticalAlign=middle;" vertex="1" parent="1">
          <mxGeometry x="254.75" y="880" width="10" height="10" as="geometry" />
        </mxCell>
        <mxCell id="YR3IGx6ncRQYAdFYOEWZ-79" style="edgeStyle=orthogonalEdgeStyle;shape=connector;rounded=0;orthogonalLoop=1;jettySize=auto;html=1;entryX=0.5;entryY=1;entryDx=0;entryDy=0;labelBackgroundColor=default;strokeColor=default;align=center;verticalAlign=middle;fontFamily=Helvetica;fontSize=11;fontColor=default;endArrow=none;endFill=0;" edge="1" parent="1" source="YR3IGx6ncRQYAdFYOEWZ-78" target="YR3IGx6ncRQYAdFYOEWZ-6">
          <mxGeometry relative="1" as="geometry" />
        </mxCell>
        <mxCell id="YR3IGx6ncRQYAdFYOEWZ-78" value="specifiche_tecniche" style="ellipse;whiteSpace=wrap;html=1;align=center;fontFamily=Helvetica;fontSize=11;fontColor=default;" vertex="1" parent="1">
          <mxGeometry x="290" y="915" width="100" height="40" as="geometry" />
        </mxCell>
        <mxCell id="YR3IGx6ncRQYAdFYOEWZ-90" style="shape=connector;rounded=0;orthogonalLoop=1;jettySize=auto;html=1;entryX=0;entryY=1;entryDx=0;entryDy=0;labelBackgroundColor=default;strokeColor=default;align=center;verticalAlign=middle;fontFamily=Helvetica;fontSize=11;fontColor=default;endArrow=none;endFill=0;" edge="1" parent="1" source="YR3IGx6ncRQYAdFYOEWZ-80" target="YR3IGx6ncRQYAdFYOEWZ-78">
          <mxGeometry relative="1" as="geometry" />
        </mxCell>
        <mxCell id="YR3IGx6ncRQYAdFYOEWZ-80" value="peso" style="ellipse;whiteSpace=wrap;html=1;align=center;fontFamily=Helvetica;fontSize=11;fontColor=default;labelPosition=center;verticalLabelPosition=bottom;verticalAlign=middle;" vertex="1" parent="1">
          <mxGeometry x="300" y="985" width="10" height="10" as="geometry" />
        </mxCell>
        <mxCell id="YR3IGx6ncRQYAdFYOEWZ-83" style="shape=connector;rounded=0;orthogonalLoop=1;jettySize=auto;html=1;entryX=0.5;entryY=1;entryDx=0;entryDy=0;labelBackgroundColor=default;strokeColor=default;align=center;verticalAlign=middle;fontFamily=Helvetica;fontSize=11;fontColor=default;endArrow=none;endFill=0;" edge="1" parent="1" source="YR3IGx6ncRQYAdFYOEWZ-81" target="YR3IGx6ncRQYAdFYOEWZ-78">
          <mxGeometry relative="1" as="geometry" />
        </mxCell>
        <mxCell id="YR3IGx6ncRQYAdFYOEWZ-81" value="lunghezza" style="ellipse;whiteSpace=wrap;html=1;align=center;fontFamily=Helvetica;fontSize=11;fontColor=default;labelPosition=center;verticalLabelPosition=bottom;verticalAlign=middle;" vertex="1" parent="1">
          <mxGeometry x="335" y="965" width="10" height="10" as="geometry" />
        </mxCell>
        <mxCell id="YR3IGx6ncRQYAdFYOEWZ-91" style="shape=connector;rounded=0;orthogonalLoop=1;jettySize=auto;html=1;entryX=1;entryY=1;entryDx=0;entryDy=0;labelBackgroundColor=default;strokeColor=default;align=center;verticalAlign=middle;fontFamily=Helvetica;fontSize=11;fontColor=default;endArrow=none;endFill=0;" edge="1" parent="1" source="YR3IGx6ncRQYAdFYOEWZ-82" target="YR3IGx6ncRQYAdFYOEWZ-78">
          <mxGeometry relative="1" as="geometry" />
        </mxCell>
        <mxCell id="YR3IGx6ncRQYAdFYOEWZ-82" value="apertura_alare" style="ellipse;whiteSpace=wrap;html=1;align=center;fontFamily=Helvetica;fontSize=11;fontColor=default;labelPosition=center;verticalLabelPosition=bottom;verticalAlign=middle;" vertex="1" parent="1">
          <mxGeometry x="369" y="985" width="10" height="10" as="geometry" />
        </mxCell>
        <mxCell id="YR3IGx6ncRQYAdFYOEWZ-93" style="edgeStyle=orthogonalEdgeStyle;shape=connector;rounded=0;orthogonalLoop=1;jettySize=auto;html=1;labelBackgroundColor=default;strokeColor=default;align=center;verticalAlign=middle;fontFamily=Helvetica;fontSize=11;fontColor=default;endArrow=none;endFill=0;" edge="1" parent="1" source="YR3IGx6ncRQYAdFYOEWZ-92">
          <mxGeometry relative="1" as="geometry">
            <mxPoint x="405" y="590" as="targetPoint" />
          </mxGeometry>
        </mxCell>
        <mxCell id="YR3IGx6ncRQYAdFYOEWZ-92" value="" style="ellipse;whiteSpace=wrap;html=1;align=center;fontFamily=Helvetica;fontSize=11;fontColor=default;fillColor=#050505;" vertex="1" parent="1">
          <mxGeometry x="400" y="540" width="10" height="10" as="geometry" />
        </mxCell>
        <mxCell id="YR3IGx6ncRQYAdFYOEWZ-96" style="edgeStyle=orthogonalEdgeStyle;shape=connector;rounded=0;orthogonalLoop=1;jettySize=auto;html=1;labelBackgroundColor=default;strokeColor=default;align=center;verticalAlign=middle;fontFamily=Helvetica;fontSize=11;fontColor=default;endArrow=none;endFill=0;" edge="1" parent="1" source="YR3IGx6ncRQYAdFYOEWZ-95">
          <mxGeometry relative="1" as="geometry">
            <mxPoint x="275" y="890" as="targetPoint" />
          </mxGeometry>
        </mxCell>
        <mxCell id="YR3IGx6ncRQYAdFYOEWZ-95" value="" style="ellipse;whiteSpace=wrap;html=1;align=center;fontFamily=Helvetica;fontSize=11;fontColor=default;fillColor=#050505;" vertex="1" parent="1">
          <mxGeometry x="270" y="840" width="10" height="10" as="geometry" />
        </mxCell>
      </root>
    </mxGraphModel>
  </diagram>
</mxfile>
